<svg width="60" height="780" viewBox="0 0 60 780" fill="none" xmlns="http://www.w3.org/2000/svg">
<rect x="20" y="460" width="20" height="20" transform="rotate(-90 20 460)" fill="#416FE3"/>
<rect y="460" width="20" height="20" transform="rotate(-90 0 460)" fill="#FF483A"/>
<rect x="40" y="460" width="20" height="20" transform="rotate(-90 40 460)" fill="#FF483A"/>
<rect x="20" y="440" width="20" height="20" transform="rotate(-90 20 440)" fill="#FF483A"/>
<rect x="20" y="480" width="20" height="20" transform="rotate(-90 20 480)" fill="#FF483A"/>
<rect x="20" y="100" width="20" height="20" transform="rotate(-90 20 100)" fill="#416FE3"/>
<rect y="100" width="20" height="20" transform="rotate(-90 0 100)" fill="#FF483A"/>
<rect x="40" y="100" width="20" height="20" transform="rotate(-90 40 100)" fill="#FF483A"/>
<rect x="20" y="80" width="20" height="20" transform="rotate(-90 20 80)" fill="#FF483A"/>
<rect x="20" y="120" width="20" height="20" transform="rotate(-90 20 120)" fill="#FF483A"/>
<rect x="1" y="540" width="20" height="19" transform="rotate(-90 1 540)" fill="#FFE928"/>
<rect x="20" y="520" width="20" height="20" transform="rotate(-90 20 520)" fill="#FF483A"/>
<rect x="1" y="500" width="20" height="19" transform="rotate(-90 1 500)" fill="#FFE928"/>
<rect x="40" y="500" width="20" height="20" transform="rotate(-90 40 500)" fill="#FFE928"/>
<rect x="40" y="540" width="20" height="20" transform="rotate(-90 40 540)" fill="#FFE928"/>
<rect x="1" y="180" width="20" height="19" transform="rotate(-90 1 180)" fill="#FFE928"/>
<rect x="20" y="160" width="20" height="20" transform="rotate(-90 20 160)" fill="#FF483A"/>
<rect x="1" y="140" width="20" height="19" transform="rotate(-90 1 140)" fill="#FFE928"/>
<rect x="40" y="140" width="20" height="20" transform="rotate(-90 40 140)" fill="#FFE928"/>
<rect x="40" y="180" width="20" height="20" transform="rotate(-90 40 180)" fill="#FFE928"/>
<rect y="420" width="20" height="20" transform="rotate(-90 0 420)" fill="#416FE3"/>
<rect x="20" y="400" width="20" height="20" transform="rotate(-90 20 400)" fill="#2CB482"/>
<rect y="380" width="20" height="20" transform="rotate(-90 0 380)" fill="#416FE3"/>
<rect x="40" y="380" width="20" height="20" transform="rotate(-90 40 380)" fill="#416FE3"/>
<rect x="40" y="420" width="20" height="20" transform="rotate(-90 40 420)" fill="#416FE3"/>
<rect y="60" width="20" height="20" transform="rotate(-90 0 60)" fill="#416FE3"/>
<rect x="20" y="40" width="20" height="20" transform="rotate(-90 20 40)" fill="#2CB482"/>
<rect y="20" width="20" height="20" transform="rotate(-90 0 20)" fill="#416FE3"/>
<rect x="40" y="20" width="20" height="20" transform="rotate(-90 40 20)" fill="#416FE3"/>
<rect x="40" y="60" width="20" height="20" transform="rotate(-90 40 60)" fill="#416FE3"/>
<rect y="780" width="20" height="20" transform="rotate(-90 0 780)" fill="#416FE3"/>
<rect x="20" y="760" width="20" height="20" transform="rotate(-90 20 760)" fill="#2CB482"/>
<rect y="740" width="20" height="20" transform="rotate(-90 0 740)" fill="#416FE3"/>
<rect x="40" y="740" width="20" height="20" transform="rotate(-90 40 740)" fill="#416FE3"/>
<rect x="40" y="780" width="20" height="20" transform="rotate(-90 40 780)" fill="#416FE3"/>
<rect x="20" y="700" width="20" height="20" transform="rotate(-90 20 700)" fill="#FF483A"/>
<rect x="1" y="700" width="20" height="19" transform="rotate(-90 1 700)" fill="#FFE928"/>
<rect x="40" y="700" width="20" height="20" transform="rotate(-90 40 700)" fill="#FFE928"/>
<rect x="20" y="680" width="20" height="20" transform="rotate(-90 20 680)" fill="#FFE928"/>
<rect x="20" y="720" width="20" height="20" transform="rotate(-90 20 720)" fill="#FFE928"/>
<rect x="20" y="340" width="20" height="20" transform="rotate(-90 20 340)" fill="#FF483A"/>
<rect x="1" y="340" width="20" height="19" transform="rotate(-90 1 340)" fill="#FFE928"/>
<rect x="40" y="340" width="20" height="20" transform="rotate(-90 40 340)" fill="#FFE928"/>
<rect x="20" y="320" width="20" height="20" transform="rotate(-90 20 320)" fill="#FFE928"/>
<rect x="20" y="360" width="20" height="20" transform="rotate(-90 20 360)" fill="#FFE928"/>
<rect x="20" y="580" width="20" height="20" transform="rotate(-90 20 580)" fill="#FFE928"/>
<rect y="580" width="20" height="20" transform="rotate(-90 0 580)" fill="#416FE3"/>
<rect x="40" y="580" width="20" height="20" transform="rotate(-90 40 580)" fill="#416FE3"/>
<rect x="20" y="560" width="20" height="20" transform="rotate(-90 20 560)" fill="#416FE3"/>
<rect x="20" y="600" width="20" height="20" transform="rotate(-90 20 600)" fill="#416FE3"/>
<rect x="20" y="220" width="20" height="20" transform="rotate(-90 20 220)" fill="#FFE928"/>
<rect y="220" width="20" height="20" transform="rotate(-90 0 220)" fill="#416FE3"/>
<rect x="40" y="220" width="20" height="20" transform="rotate(-90 40 220)" fill="#416FE3"/>
<rect x="20" y="200" width="20" height="20" transform="rotate(-90 20 200)" fill="#416FE3"/>
<rect x="20" y="240" width="20" height="20" transform="rotate(-90 20 240)" fill="#416FE3"/>
<rect y="660" width="20" height="20" transform="rotate(-90 0 660)" fill="#FF483A"/>
<rect x="20" y="640" width="20" height="20" transform="rotate(-90 20 640)" fill="#2CB482"/>
<rect y="620" width="20" height="20" transform="rotate(-90 0 620)" fill="#FF483A"/>
<rect x="40" y="620" width="20" height="20" transform="rotate(-90 40 620)" fill="#FF483A"/>
<rect x="40" y="660" width="20" height="20" transform="rotate(-90 40 660)" fill="#FF483A"/>
<rect y="300" width="20" height="20" transform="rotate(-90 0 300)" fill="#FF483A"/>
<rect x="20" y="280" width="20" height="20" transform="rotate(-90 20 280)" fill="#2CB482"/>
<rect y="260" width="20" height="20" transform="rotate(-90 0 260)" fill="#FF483A"/>
<rect x="40" y="260" width="20" height="20" transform="rotate(-90 40 260)" fill="#FF483A"/>
<rect x="40" y="300" width="20" height="20" transform="rotate(-90 40 300)" fill="#FF483A"/>
</svg>
