<svg width="720" height="60" viewBox="0 0 720 60" fill="none" xmlns="http://www.w3.org/2000/svg">
<rect x="460" y="40" width="20" height="20" transform="rotate(-180 460 40)" fill="#5377D2"/>
<rect x="460" y="60" width="20" height="20" transform="rotate(-180 460 60)" fill="#CF4F47"/>
<rect x="460" y="20" width="20" height="20" transform="rotate(-180 460 20)" fill="#CF4F47"/>
<rect x="440" y="40" width="20" height="20" transform="rotate(-180 440 40)" fill="#CF4F47"/>
<rect x="480" y="40" width="20" height="20" transform="rotate(-180 480 40)" fill="#CF4F47"/>
<rect x="100" y="40" width="20" height="20" transform="rotate(-180 100 40)" fill="#5377D2"/>
<rect x="100" y="60" width="20" height="20" transform="rotate(-180 100 60)" fill="#CF4F47"/>
<rect x="100" y="20" width="20" height="20" transform="rotate(-180 100 20)" fill="#CF4F47"/>
<rect x="80" y="40" width="20" height="20" transform="rotate(-180 80 40)" fill="#CF4F47"/>
<rect x="120" y="40" width="20" height="20" transform="rotate(-180 120 40)" fill="#CF4F47"/>
<rect x="540" y="59" width="20" height="19" transform="rotate(-180 540 59)" fill="#DBC821"/>
<rect x="520" y="40" width="20" height="20" transform="rotate(-180 520 40)" fill="#CF4F47"/>
<rect x="500" y="59" width="20" height="19" transform="rotate(-180 500 59)" fill="#DBC821"/>
<rect x="500" y="20" width="20" height="20" transform="rotate(-180 500 20)" fill="#DBC821"/>
<rect x="540" y="20" width="20" height="20" transform="rotate(-180 540 20)" fill="#DBC821"/>
<rect x="180" y="59" width="20" height="19" transform="rotate(-180 180 59)" fill="#DBC821"/>
<rect x="160" y="40" width="20" height="20" transform="rotate(-180 160 40)" fill="#CF4F47"/>
<rect x="140" y="59" width="20" height="19" transform="rotate(-180 140 59)" fill="#DBC821"/>
<rect x="140" y="20" width="20" height="20" transform="rotate(-180 140 20)" fill="#DBC821"/>
<rect x="180" y="20" width="20" height="20" transform="rotate(-180 180 20)" fill="#DBC821"/>
<rect x="420" y="60" width="20" height="20" transform="rotate(-180 420 60)" fill="#5377D2"/>
<rect x="400" y="40" width="20" height="20" transform="rotate(-180 400 40)" fill="#2C9B73"/>
<rect x="380" y="60" width="20" height="20" transform="rotate(-180 380 60)" fill="#5377D2"/>
<rect x="380" y="20" width="20" height="20" transform="rotate(-180 380 20)" fill="#5377D2"/>
<rect x="420" y="20" width="20" height="20" transform="rotate(-180 420 20)" fill="#5377D2"/>
<rect x="60" y="60" width="20" height="20" transform="rotate(-180 60 60)" fill="#5377D2"/>
<rect x="40" y="40" width="20" height="20" transform="rotate(-180 40 40)" fill="#2C9B73"/>
<rect x="20" y="60" width="20" height="20" transform="rotate(-180 20 60)" fill="#5377D2"/>
<rect x="20" y="20" width="20" height="20" transform="rotate(-180 20 20)" fill="#5377D2"/>
<rect x="60" y="20" width="20" height="20" transform="rotate(-180 60 20)" fill="#5377D2"/>
<rect x="700" y="40" width="20" height="20" transform="rotate(-180 700 40)" fill="#CF4F47"/>
<rect x="700" y="59" width="20" height="19" transform="rotate(-180 700 59)" fill="#DBC821"/>
<rect x="700" y="20" width="20" height="20" transform="rotate(-180 700 20)" fill="#DBC821"/>
<rect x="680" y="40" width="20" height="20" transform="rotate(-180 680 40)" fill="#DBC821"/>
<rect x="720" y="40" width="20" height="20" transform="rotate(-180 720 40)" fill="#DBC821"/>
<rect x="340" y="40" width="20" height="20" transform="rotate(-180 340 40)" fill="#CF4F47"/>
<rect x="340" y="59" width="20" height="19" transform="rotate(-180 340 59)" fill="#DBC821"/>
<rect x="340" y="20" width="20" height="20" transform="rotate(-180 340 20)" fill="#DBC821"/>
<rect x="320" y="40" width="20" height="20" transform="rotate(-180 320 40)" fill="#DBC821"/>
<rect x="360" y="40" width="20" height="20" transform="rotate(-180 360 40)" fill="#DBC821"/>
<rect x="580" y="40" width="20" height="20" transform="rotate(-180 580 40)" fill="#DBC821"/>
<rect x="580" y="60" width="20" height="20" transform="rotate(-180 580 60)" fill="#5377D2"/>
<rect x="580" y="20" width="20" height="20" transform="rotate(-180 580 20)" fill="#5377D2"/>
<rect x="560" y="40" width="20" height="20" transform="rotate(-180 560 40)" fill="#5377D2"/>
<rect x="600" y="40" width="20" height="20" transform="rotate(-180 600 40)" fill="#5377D2"/>
<rect x="220" y="40" width="20" height="20" transform="rotate(-180 220 40)" fill="#DBC821"/>
<rect x="220" y="60" width="20" height="20" transform="rotate(-180 220 60)" fill="#5377D2"/>
<rect x="220" y="20" width="20" height="20" transform="rotate(-180 220 20)" fill="#5377D2"/>
<rect x="200" y="40" width="20" height="20" transform="rotate(-180 200 40)" fill="#5377D2"/>
<rect x="240" y="40" width="20" height="20" transform="rotate(-180 240 40)" fill="#5377D2"/>
<rect x="660" y="60" width="20" height="20" transform="rotate(-180 660 60)" fill="#CF4F47"/>
<rect x="640" y="40" width="20" height="20" transform="rotate(-180 640 40)" fill="#2C9B73"/>
<rect x="620" y="60" width="20" height="20" transform="rotate(-180 620 60)" fill="#CF4F47"/>
<rect x="620" y="20" width="20" height="20" transform="rotate(-180 620 20)" fill="#CF4F47"/>
<rect x="660" y="20" width="20" height="20" transform="rotate(-180 660 20)" fill="#CF4F47"/>
<rect x="300" y="60" width="20" height="20" transform="rotate(-180 300 60)" fill="#CF4F47"/>
<rect x="280" y="40" width="20" height="20" transform="rotate(-180 280 40)" fill="#2C9B73"/>
<rect x="260" y="60" width="20" height="20" transform="rotate(-180 260 60)" fill="#CF4F47"/>
<rect x="260" y="20" width="20" height="20" transform="rotate(-180 260 20)" fill="#CF4F47"/>
<rect x="300" y="20" width="20" height="20" transform="rotate(-180 300 20)" fill="#CF4F47"/>
</svg>
